g pot
v 0.187500 -0.500000 -0.187500
v 0.187500 -0.500000 0.187500
v -0.187500 -0.500000 0.187500
v -0.187500 -0.500000 -0.187500
v 0.187500 -0.312500 -0.187500
v 0.187500 -0.312500 0.187500
v -0.187500 -0.312500 0.187500
v -0.187500 -0.312500 -0.187500
v 0.250000 -0.312500 -0.250000
v 0.250000 -0.312500 0.250000
v -0.250000 -0.125000 0.250000
v -0.250000 -0.125000 -0.250000
v -0.250000 -0.312500 -0.250000
v -0.250000 -0.312500 0.250000
v 0.250000 -0.125000 -0.250000
v 0.250000 -0.125000 0.250000
v -0.187500 -0.125000 0.187500
v -0.187500 -0.125000 -0.187500
v 0.187500 -0.125000 -0.187500
v 0.187500 -0.187500 -0.187500
v 0.187500 -0.187500 0.187500
v 0.187500 -0.125000 0.187500
v -0.187500 -0.187500 0.187500
v -0.187500 -0.187500 -0.187500
vt 0.3125 0.6875
vt 0.3125 0.3125
vt 0.6875 0.3125
vt 0.6875 0.6875
vt 0.6875 0.0000
vt 0.6875 0.1875
vt 0.3125 0.1875
vt 0.3125 0.0000
vt 0.6875 0.0000
vt 0.6875 0.1875
vt 0.3125 0.1875
vt 0.3125 0.0000
vt 0.6875 0.0000
vt 0.6875 0.1875
vt 0.3125 0.1875
vt 0.3125 0.0000
vt 0.3125 0.3125
vt 0.3125 0.6875
vt 0.2500 0.7500
vt 0.2500 0.2500
vt 0.7500 0.3750
vt 0.2500 0.3750
vt 0.2500 0.1875
vt 0.7500 0.1875
vt 0.7500 0.3750
vt 0.2500 0.3750
vt 0.2500 0.1875
vt 0.7500 0.1875
vt 0.7500 0.3750
vt 0.2500 0.3750
vt 0.2500 0.1875
vt 0.7500 0.1875
vt 0.7500 0.3750
vt 0.2500 0.3750
vt 0.2500 0.1875
vt 0.7500 0.1875
vt 0.7500 0.2500
vt 0.7500 0.7500
vt 0.6875 0.6875
vt 0.6875 0.3125
vt 0.3125 0.3750
vt 0.3125 0.3125
vt 0.6875 0.3125
vt 0.6875 0.3750
vt 0.2500 0.7500
vt 0.3125 0.6875
vt 0.2500 0.2500
vt 0.3125 0.3125
vt 0.3125 0.3750
vt 0.3125 0.3125
vt 0.6875 0.3125
vt 0.6875 0.3750
vt 0.3125 0.3750
vt 0.3125 0.3125
vt 0.6875 0.3125
vt 0.6875 0.3750
vt 0.6875 0.3125
vt 0.6875 0.3750
vt 0.3125 0.3750
vt 0.3125 0.3125
vt 0.7500 0.2500
vt 0.6875 0.3125
vt 0.6875 0.1875
vt 0.3125 0.1875
vt 0.3125 0.0000
vt 0.6875 0.0000
vt 0.7500 0.7500
vt 0.6875 0.6875
vn 0.0000 -1.0000 -0.0000
vn 1.0000 -0.0000 0.0000
vn 0.0000 -0.0000 1.0000
vn -1.0000 0.0000 0.0000
vn 0.0000 0.0000 -1.0000
vn -0.0000 1.0000 0.0000
s off
f 1/1/1 2/2/1 3/3/1 4/4/1
f 1/5/2 5/6/2 6/7/2 2/8/2
f 2/9/3 6/10/3 7/11/3 3/12/3
f 3/13/4 7/14/4 8/15/4 4/16/4
f 6/17/1 5/18/1 9/19/1 10/20/1
f 11/21/4 12/22/4 13/23/4 14/24/4
f 12/25/5 15/26/5 9/27/5 13/28/5
f 15/29/2 16/30/2 10/31/2 9/32/2
f 16/33/3 11/34/3 14/35/3 10/36/3
f 12/37/6 11/38/6 17/39/6 18/40/6
f 19/41/4 20/42/4 21/43/4 22/44/4
f 11/38/6 16/45/6 22/46/6 17/39/6
f 15/47/6 12/37/6 18/40/6 19/48/6
f 16/45/6 15/47/6 19/48/6 22/46/6
f 22/49/5 21/50/5 23/51/5 17/52/5
f 17/53/2 23/54/2 24/55/2 18/56/2
f 20/57/3 19/58/3 18/59/3 24/60/3
f 6/17/1 10/20/1 14/61/1 7/62/1
f 8/63/5 5/64/5 1/65/5 4/66/5
f 7/62/1 14/61/1 13/67/1 8/68/1
f 5/18/1 8/68/1 13/67/1 9/19/1
g dirt
v 0.187500 -0.187500 -0.187500
v -0.187500 -0.187500 -0.187500
v -0.187500 -0.187500 0.187500
v 0.187500 -0.187500 0.187500
vt 0.3125 0.3125
vt 0.6875 0.3125
vt 0.6875 0.6875
vt 0.3125 0.6875
vn 0.0000 1.0000 0.0000
s off
f 25/69/7 26/70/7 27/71/7 28/72/7
g plant
v -0.353553 0.812500 -0.353553
v 0.353554 0.812500 0.353553
v 0.353553 -0.187500 0.353553
v -0.353554 -0.187500 -0.353553
v -0.353554 0.812500 0.353553
v 0.353553 0.812500 -0.353553
v 0.353554 -0.187500 -0.353553
v -0.353553 -0.187500 0.353553
vt 1.0000 1.0000
vt 0.0000 1.0000
vt 0.0000 0.0000
vt 1.0000 0.0000
vt 1.0000 1.0000
vt 0.0000 1.0000
vt 0.0000 0.0000
vt 1.0000 0.0000
vn 0.7071 -0.0000 -0.7071
vn -0.7071 -0.0000 -0.7071
s off
f 29/73/8 30/74/8 31/75/8 32/76/8
f 33/77/9 34/78/9 35/79/9 36/80/9
